<?xml version="1.0" encoding="utf-8"?>
<!-- Generator: Adobe Illustrator 25.2.3, SVG Export Plug-In . SVG Version: 6.00 Build 0)  -->
<svg version="1.1" id="Layer_1" xmlns="http://www.w3.org/2000/svg" xmlns:xlink="http://www.w3.org/1999/xlink" x="0px" y="0px"
	 viewBox="0 0 36 34.5" style="enable-background:new 0 0 36 34.5;" xml:space="preserve">
<style type="text/css">
	.st0{fill:none;stroke:#000000;stroke-width:3;stroke-linecap:round;stroke-linejoin:round;}
</style>
<g>
	<path id="Path_4" class="st0" d="M15,31.5c0,0.8-0.7,1.5-1.5,1.5S12,32.3,12,31.5s0.7-1.5,1.5-1.5l0,0C14.3,30,15,30.7,15,31.5z"/>
	<path id="Path_5" class="st0" d="M31.5,31.5c0,0.8-0.7,1.5-1.5,1.5s-1.5-0.7-1.5-1.5S29.2,30,30,30l0,0
		C30.8,30,31.5,30.7,31.5,31.5z"/>
	<path id="Path_6" class="st0" d="M1.5,1.5h6l4,20.1c0.3,1.4,1.5,2.4,3,2.4h14.6c1.5,0,2.7-1,3-2.4L34.5,9H9"/>
</g>
</svg>
