<?xml version="1.0" encoding="utf-8"?>
<!-- Generator: Adobe Illustrator 25.2.3, SVG Export Plug-In . SVG Version: 6.00 Build 0)  -->
<svg version="1.1" id="Layer_1" xmlns="http://www.w3.org/2000/svg" xmlns:xlink="http://www.w3.org/1999/xlink" x="0px" y="0px"
	 viewBox="0 0 201 69.8" style="enable-background:new 0 0 201 69.8;" xml:space="preserve">
<path d="M4.5,31.8C1.5,28.6,0,24.1,0,18.2c0-3.8,0.7-7.1,2-9.9c1.3-2.8,3.2-4.8,5.5-6.2C9.9,0.7,12.7,0,15.8,0
	c1.9,0,3.8,0.5,5.8,1.6C22.3,2,23,2.6,23.8,3.2c0.6-0.9,1.1-1.5,1.8-2c0.6-0.4,0.9-0.7,1-0.7h1.2V10h-2c-0.4-1.6-1.1-3-2-4.4
	c-0.8-1.3-1.8-2.3-3-3.1c-1.2-0.8-2.5-1.2-4.1-1.2c-2.3,0-4.2,1.3-5.7,4c-1.5,2.7-2.3,7-2.3,13c0,6.1,0.8,10.5,2.5,13.1
	c1.6,2.6,3.9,3.9,6.8,3.9c1.6,0,3.1-0.4,4.5-1.3c1.4-0.9,2.6-2.1,3.4-3.5c0.9-1.5,1.3-3,1.3-4.6h1.2c0,1.9-0.5,3.7-1.5,5.3
	c-1,1.6-2.4,3-4.1,3.9s-3.7,1.5-5.8,1.5C11.7,36.5,7.5,34.9,4.5,31.8z M36.3,7v26.5l4,1.5v0.8h-9.5V35l4-1.5V2.2l-3-0.8V0.8h6.2
	c1.7,0,3.1,0.4,4.1,1.1c1,0.7,1.9,1.8,2.6,3.2l10.9,20.9L64.1,5c0.6-1.5,1.3-2.5,2.3-3.2c1-0.7,2.5-1,4.5-1h5.2v0.8l-3,0.8v32l3,0.8
	v0.8H61.8V35l3-0.8V7L53.1,36.2h-1.5L36.3,7z M79.9,35l4-1.5L92.4,21l-11-18.7l-2.5-0.8V0.8h7.2c1.7,0,3,0.4,4,1
	c1,0.7,1.9,1.8,2.8,3.2l4.8,8.2l7-10.2l-3.8-1.5V0.8h9.5v0.8l-4,1.5l-7.8,11.5l11.6,19.7l2.5,0.8v0.8h-7.2c-1.6,0-3-0.4-4-1
	c-1-0.7-1.9-1.8-2.8-3.2l-5.4-9.1l-7.6,11.1l3.8,1.5v0.8h-9.5V35z M114.6,35l4-1.5l8.5-12.5l-11-18.7l-2.5-0.8V0.8h7.2
	c1.7,0,3,0.4,4,1c1,0.7,1.9,1.8,2.8,3.2l4.8,8.2l7-10.2l-3.8-1.5V0.8h9.5v0.8l-4,1.5l-7.8,11.5l11.6,19.7l2.5,0.8v0.8h-7.2
	c-1.6,0-3-0.4-4-1c-1-0.7-1.9-1.8-2.8-3.2l-5.4-9.1l-7.6,11.1l3.8,1.5v0.8h-9.5V35z M150.2,35.8V35l3-0.8v-32l-3-0.8V0.8h14.2v0.8
	l-3,0.8v32l3,0.8v0.8H150.2z M168.3,35l4-1.5l8.5-12.5l-11-18.7l-2.5-0.8V0.8h7.2c1.7,0,3,0.4,4,1c1,0.7,1.9,1.8,2.8,3.2l4.8,8.2
	L193,3l-3.8-1.5V0.8h9.5v0.8l-4,1.5l-7.8,11.5l11.6,19.7L201,35v0.8h-7.2c-1.6,0-3-0.4-4-1c-1-0.7-1.9-1.8-2.8-3.2l-5.4-9.1
	L174,33.5l3.8,1.5v0.8h-9.5V35z M51.8,65.2h-9.7l-2,4.6h-2.7l8.2-18.2h2.6l8.3,18.2h-2.7L51.8,65.2z M50.9,63.1l-3.9-8.9L43,63.1
	H50.9z M73.7,57.9c0,4-2.9,6.3-7.6,6.3h-4.5v5.5H59V51.5h7.1C70.8,51.5,73.7,53.9,73.7,57.9z M71.1,57.9c0-2.6-1.7-4.1-5.1-4.1h-4.4
	V62H66C69.3,62,71.1,60.5,71.1,57.9z M91.8,57.9c0,4-2.9,6.3-7.6,6.3h-4.5v5.5h-2.6V51.5h7.1C88.9,51.5,91.8,53.9,91.8,57.9z
	 M89.2,57.9c0-2.6-1.7-4.1-5.1-4.1h-4.4V62h4.4C87.5,62,89.2,60.5,89.2,57.9z M105.8,65.2h-9.7l-2,4.6h-2.7l8.2-18.2h2.6l8.3,18.2
	h-2.7L105.8,65.2z M104.9,63.1l-3.9-8.9l-3.9,8.9H104.9z M125.2,69.8l-3.9-5.6c-0.4,0-0.8,0.1-1.1,0.1h-4.5v5.5H113V51.5h7.1
	c4.7,0,7.6,2.4,7.6,6.3c0,2.8-1.5,4.8-4,5.7l4.3,6.1H125.2z M125.1,57.9c0-2.6-1.7-4.1-5.1-4.1h-4.4V62h4.4
	C123.4,62,125.1,60.5,125.1,57.9z M144.8,67.5v2.3h-13.2V51.5h12.8v2.3h-10.2v5.6h9.1v2.2h-9.1v5.9H144.8z M148.3,51.5h2.6v15.9h9.9
	v2.3h-12.5V51.5z"/>
</svg>
